<?xml version="1.0" encoding="UTF-8" standalone="no"?>
<!-- Generator: Adobe Illustrator 21.1.0, SVG Export Plug-In . SVG Version: 6.00 Build 0)  -->

<svg
   xmlns:dc="http://purl.org/dc/elements/1.1/"
   xmlns:cc="http://creativecommons.org/ns#"
   xmlns:rdf="http://www.w3.org/1999/02/22-rdf-syntax-ns#"
   xmlns:svg="http://www.w3.org/2000/svg"
   xmlns="http://www.w3.org/2000/svg"
   xmlns:sodipodi="http://sodipodi.sourceforge.net/DTD/sodipodi-0.dtd"
   xmlns:inkscape="http://www.inkscape.org/namespaces/inkscape"
   version="1.1"
   id="Layer_1"
   width="200"
   height="100"
   x="0px"
   y="0px"
   viewBox="0 0 700 700"
   style="enable-background:new 0 0 700 700;"
   xml:space="preserve"
   sodipodi:docname="laravel.svg"
   inkscape:version="0.92.1 r15371"><metadata
     id="metadata11"><rdf:RDF><cc:Work
         rdf:about=""><dc:format>image/svg+xml</dc:format><dc:type
           rdf:resource="http://purl.org/dc/dcmitype/StillImage" /></cc:Work></rdf:RDF></metadata><defs
     id="defs9" /><sodipodi:namedview
     pagecolor="#ffffff"
     bordercolor="#666666"
     borderopacity="1"
     objecttolerance="10"
     gridtolerance="10"
     guidetolerance="10"
     inkscape:pageopacity="0"
     inkscape:pageshadow="2"
     inkscape:window-width="1366"
     inkscape:window-height="705"
     id="namedview7"
     showgrid="false"
     inkscape:zoom="1.745"
     inkscape:cx="-4.8710602"
     inkscape:cy="50"
     inkscape:window-x="-8"
     inkscape:window-y="-8"
     inkscape:window-maximized="1"
     inkscape:current-layer="Layer_1" /><style
     type="text/css"
     id="style2">
	.st0{fill:#FB503B;}
</style><path
     class="st0"
     d="m 721.7441,336.71649 c -5.13753,-5.66899 -74.93703,-93.1841 -87.33796,-108.06522 -12.40092,-14.88111 -18.24708,-12.22376 -25.86479,-10.98368 -7.61771,1.2401 -96.0186,15.94405 -106.29366,17.71561 -10.27506,1.77156 -16.65267,5.84616 -10.45221,14.70397 5.66899,7.79486 63.77619,90.34961 76.53143,108.41953 L 337.13821,413.95655 153.60448,106.59072 c -7.2634,-10.806528 -8.8578,-14.70396 -25.51047,-13.818174 -16.65268,0.70862 -144.20507,11.337984 -153.240031,12.046614 -9.034961,0.70862 -19.132859,4.78321 -9.920742,26.2191 9.034961,21.43588 153.948653,333.58494 158.023243,342.6199 4.07459,9.03496 14.5268,23.73891 39.1515,17.89277 25.15616,-6.02332 112.49413,-28.87644 160.14911,-41.27737 25.15617,45.70626 76.7086,138.18176 86.09787,151.46846 12.75523,17.71561 21.43588,14.70395 40.92305,8.8578 15.23543,-4.60606 238.09781,-84.68061 248.1957,-88.93236 10.0979,-4.07458 16.29836,-7.08624 9.38928,-17.18414 -4.96037,-7.44056 -63.7762,-86.09786 -94.60136,-127.37524 21.08157,-5.66899 96.0186,-25.51047 104.16779,-27.8135 9.21211,-2.30304 10.45221,-6.90909 5.31468,-12.57809 z M 301.52983,422.6372 c -2.8345,0.53147 -132.15845,31.53379 -139.06754,33.1282 -6.90909,1.5944 -6.90909,0.70862 -7.61771,-1.59441 C 154.13596,451.86795 0.89592575,135.99863 -1.2299474,132.1012 c -2.1258732,-3.89743 -1.9487171,-7.08625 0,-7.08625 1.94871705,0 122.2377074,-10.80652 126.4894574,-10.98367 4.25175,-0.17716 3.72027,0.70862 5.31468,3.36597 0,0 169.53839,292.66187 172.55005,297.7994 3.01164,5.31468 1.24008,6.90909 -1.59441,7.44055 z m 365.11872,68.38226 c 2.12587,3.1888 4.07459,5.31468 -2.30302,7.61771 -6.55478,2.30303 -219.1421,74.05125 -223.21669,75.82281 -4.0746,1.77156 -7.44056,2.30303 -12.75525,-5.31468 -5.31468,-7.61772 -74.40556,-127.37524 -74.40556,-127.37524 L 579.3106,383.1314 c 5.66899,-1.77157 7.44055,-3.01166 10.98367,2.65733 3.54313,5.66899 74.22841,102.04192 76.35428,105.23073 z M 680.9982,331.0475 c -5.13753,1.06294 -87.86943,21.61304 -87.86943,21.61304 l -67.67363,-92.82979 c -1.94872,-2.65734 -3.54312,-5.31469 1.24009,-6.02331 4.78322,-0.70863 81.66896,-14.52681 85.03493,-15.23543 3.54312,-0.70862 6.55478,-1.77156 10.80652,4.07459 4.25174,5.84616 62.71326,79.8974 65.01629,82.7319 2.30303,2.8345 -1.41725,4.60607 -6.55477,5.669 z"
     id="path4"
     inkscape:connector-curvature="0"
     style="fill:#fb503b;stroke-width:1.77156115" /></svg>